# xmcd
#
# Track frame offsets:
# 150
# 11790
# 24313
# 35571
# 50700
# 62553
# 80571
# 97139
# 110697
# 122767
# 138674
# 150165
#
# Disc length: 2145 seconds
#
# Revision: 0
# Processed by: cddbd v1.4PL0 Copyright (c) Steve Scherf et al.
# Submitted via: Audion 3.0.2 (http://www.panic.com/audion/)
#
DISCID=a0085f0c
DTITLE=Thunderchild'98 - Thunderchild'98
DYEAR=1900
DGENRE=
TTITLE0=Blackstone
TTITLE1=x
TTITLE2=x
TTITLE3=x
TTITLE4=x
TTITLE5=x
TTITLE6=x
TTITLE7=x
TTITLE8=x
TTITLE9=x
TTITLE10=x
TTITLE11=Higg Noon
EXTD=
EXTT0=
EXTT1=
EXTT2=
EXTT3=
EXTT4=
EXTT5=
EXTT6=
EXTT7=
EXTT8=
EXTT9=
EXTT10=
EXTT11=
PLAYORDER=
